<svg width="55" height="51" viewBox="0 0 55 51" fill="none" xmlns="http://www.w3.org/2000/svg">
<path d="M41.9681 23.3926C41.597 19.3061 40.3601 15.3464 38.34 11.7787C36.32 8.21099 33.5637 5.11774 30.2558 2.70616L27.0051 0.34375L23.9592 2.72101C20.7856 5.19729 18.1683 8.31767 16.2781 11.8783C14.3879 15.4389 13.2675 19.3598 12.9899 23.3846C11.7637 23.1526 10.5186 23.036 9.27083 23.036H0.15625V30.5312C0.15625 41.6283 9.15154 50.6562 20.2083 50.6562H34.7917C45.8485 50.6562 54.8438 41.6283 54.8438 30.5312V23.036H45.7292C44.467 23.036 43.2077 23.1553 41.9681 23.3926ZM26.1975 5.6094L27.0834 4.91761L28.1178 5.66943C31.1011 7.84447 33.5689 10.6541 35.3446 13.8974C37.1204 17.1407 38.1604 20.7378 38.3904 24.4313C33.5696 26.3482 29.6695 30.0548 27.5 34.7817C25.3261 30.0461 21.4153 26.335 16.5826 24.4218C16.7099 20.7698 17.6374 17.1907 19.2993 13.9392C20.9611 10.6878 23.3163 7.84372 26.1975 5.6094ZM25.6771 46.9972H20.2083C11.1621 46.9972 3.80208 39.6104 3.80208 30.5312V26.6951H9.27083C18.3171 26.6951 25.6771 34.0818 25.6771 43.161V46.9972ZM51.1979 30.5312C51.1979 39.6104 43.838 46.9972 34.7917 46.9972H29.3229V43.161C29.3229 34.0818 36.6829 26.6951 45.7292 26.6951H51.1979V30.5312Z" fill="#3A5465"/>
</svg>
